<!--?xml version="1.0" encoding="utf-8"?-->
<!-- Generator: Adobe Illustrator 18.0.0, SVG Export Plug-In . SVG Version: 6.00 Build 0)  -->

<svg version="1.1" id="_x32_" xmlns="http://www.w3.org/2000/svg" xmlns:xlink="http://www.w3.org/1999/xlink" x="0px" y="0px" viewBox="0 0 512 512" style="width: 128px; height: 128px; opacity: 1;" xml:space="preserve">
<style type="text/css">
	.st0{fill:#4B4B4B;}
</style>
<g>
	<polygon class="st0" points="238.128,260.965 238.288,388.159 273.872,388.159 273.712,260.805 240.198,260.805 	" style="fill: rgb(75, 75, 75);"></polygon>
	<path class="st0" d="M511.84,430.887h-0.163c0.194-1.753,0.323-3.529,0.323-5.352l-26.511-274.172
		c-0.531-24.352-19.632-44.168-42.579-44.168l-41.08,0.16h-4.098c0.001,0.004,0.001,0.012,0.001,0.012l-0.162,0.004
		c0.195,1.846,0.34,3.76,0.436,5.766c0.002,0.039,0.004,0.082,0.006,0.121c0.095,2.01,0.144,4.114,0.144,6.344
		c0,3.018-0.105,5.984-0.32,8.955c-0.386,6.594-1.265,13.113-2.416,19.574c-0.11,0.543-0.171,1.101-0.287,1.644h0.026
		c-0.01,0.055-0.016,0.106-0.026,0.16l46.85-0.062c0.23,0.304,0.765,1.171,0.765,2.623l26.511,273.677
		c-0.074,0.722-0.324,1.37-0.636,1.92l-425.121,0.066c-0.218-0.308-0.605-0.976-0.71-1.956l26.405-271.76l0.051-1.964
		c0-1.436,0.535-2.303,0.636-2.545l38.987-0.16h8.046c-0.003-0.012-0.004-0.023-0.006-0.035h0.162
		c-1.48-6.867-2.44-13.995-2.862-21.186c-0.211-2.967-0.316-5.934-0.316-8.951c0-1.983,0.049-3.842,0.109-5.668
		c0.092-2.194,0.086-4.415,0.314-6.578h-0.01c0.003-0.051,0.005-0.109,0.008-0.16H69.09c-22.915,0-41.993,19.816-42.524,44.156
		L0.106,423.633L0,425.55c0,1.811,0.129,3.595,0.308,5.336l0.16,72.014H512l-0.16-35.564V430.887z" style="fill: rgb(75, 75, 75);"></path>
	<path class="st0" d="M149.746,149.816c13.444,47.275,57.14,80.29,106.254,80.29c49.172,0,92.864-33.014,106.254-80.286
		c2.01-6.832,3.299-13.98,3.826-21.24c0.316-2.975,0.422-5.95,0.422-8.979c0-4.337-0.226-8.346-0.687-12.266
		c-1.788-16.201-7.232-31.796-15.951-45.612c-1.577-2.545-3.219-5.044-4.995-7.448l-0.039,0.102c-0.039-0.055-0.072-0.11-0.111-0.16
		l-13.519,34.958c2.397,5.805,4.087,11.93,5.028,18.207c0.632,3.955,0.952,8.066,0.952,12.219c0,3.162-0.172,6.09-0.531,8.948
		c-0.781,7.296-2.561,14.416-5.29,21.166c-12.418,30.988-42.001,51.011-75.359,51.011c-33.327,0-62.886-20.022-75.304-51.011
		c-2.733-6.75-4.513-13.87-5.29-21.17c-0.359-2.854-0.531-5.782-0.531-8.944c0-4.169,0.32-8.284,0.952-12.223
		c5.918-39.308,40.389-68.953,80.172-68.953c10.845,0,21.35,2.12,31.359,6.293l22.053-11.243L315.6,30.2l2.968-1.484
		c-0.024-0.016-0.049-0.031-0.073-0.047l0.161-0.086C300.168,15.838,278.502,9.1,256,9.1c-56.406,0-103.615,42.231-109.814,98.235
		c-0.461,3.92-0.687,7.929-0.687,12.266c0,3.029,0.106,6.004,0.422,8.975C146.448,135.841,147.736,142.989,149.746,149.816z" style="fill: rgb(75, 75, 75);"></path>
	<path class="st0" d="M310.064,58.803l-65.795,33.346c-4.314,1.905-8.062,4.61-11.134,8.042c-1.964,2.174-3.615,4.56-4.903,7.09
		c-3.412,6.508-4.548,14.077-3.194,21.311c1.257,7.167,4.946,13.827,10.388,18.758c1.011,0.898,2.073,1.753,3.139,2.553
		c5.575,3.974,12.227,6.074,19.238,6.074c6.972,0,13.64-2.1,19.289-6.074c1.983-1.398,3.845-3.049,5.536-4.903
		c3.1-3.404,5.43-7.382,6.925-11.821l26.511-68.449l1.414-4.126l2.468-6.434l-0.212,0.16l0.106-0.266l-0.146,0.074l0.074-0.218
		L310.064,58.803z" style="fill: rgb(75, 75, 75);"></path>
</g>
</svg>
